<svg width="93" height="109" fill="none" xmlns="http://www.w3.org/2000/svg"><circle cx="47" cy="35" r="34.25" stroke="#fff" stroke-width="1.5"/><path d="M40 26l14 9-14 9V26zM1.41 105h1.408v-4.25h2.546c2.71 0 3.931-1.648 3.931-3.704 0-2.057-1.221-3.682-3.954-3.682H1.409V105zm1.408-5.5v-4.886h2.477c1.893 0 2.614 1.034 2.614 2.431 0 1.398-.721 2.455-2.59 2.455h-2.5zm8.747 5.5h6.819v-1.25h-5.41V93.364h-1.409V105zm10.212 0l1.17-3.295h4.705l1.17 3.295H30.3l-4.273-11.636h-1.455L20.3 105h1.477zm1.614-4.545l1.863-5.25h.091l1.864 5.25H23.39zm6.534-7.091l4.204 6.841V105h1.41v-4.795l4.204-6.841h-1.614l-3.227 5.431h-.136l-3.228-5.431h-1.613zm16.618 0h-1.478L49.338 105h1.455l4.272-11.636h-1.477l-3.455 9.795h-.136l-3.454-9.795zm11.744 0h-1.41V105h1.41V93.364zM64.703 105c3.546 0 5.546-2.205 5.546-5.84 0-3.614-2-5.796-5.387-5.796h-3.75V105h3.591zm-2.182-1.25v-9.136h2.25c2.728 0 4.114 1.727 4.114 4.545 0 2.841-1.386 4.591-4.273 4.591h-2.09zM72.612 105h7.114v-1.25H74.02v-3.954h5.25v-1.25h-5.25v-3.932h5.614v-1.25h-7.023V105zm19.38-5.818c0-3.682-2.158-5.978-5.136-5.978-2.977 0-5.136 2.296-5.136 5.978s2.16 5.977 5.136 5.977c2.978 0 5.137-2.295 5.137-5.977zm-1.363 0c0 3.023-1.659 4.659-3.773 4.659-2.113 0-3.772-1.636-3.772-4.66 0-3.022 1.659-4.658 3.772-4.658 2.114 0 3.773 1.636 3.773 4.659z" fill="#fff"/></svg>